<svg version="1.1" xmlns="http://www.w3.org/2000/svg" viewBox="0 0 729.2307692307692 514.2692307692308" width="729.2307692307692" height="514.2692307692308">
  <!-- svg-source:excalidraw -->
  
  <defs>
    <style>
      @font-face {
        font-family: "Virgil";
        src: url("https://excalidraw.com/Virgil.woff2");
      }
      @font-face {
        font-family: "Cascadia";
        src: url("https://excalidraw.com/Cascadia.woff2");
      }
    </style>
  </defs>
  <rect x="0" y="0" width="729.2307692307692" height="514.2692307692308" fill="#ffffff"></rect><g stroke-linecap="round" transform="translate(35.4086538461537 217.1875) rotate(0 31.249999999999943 27.187499999999943)"><path d="M45.79 3.44 C51.68 5.57, 58.41 11.59, 60.84 16.97 C63.28 22.35, 62.61 30.03, 60.4 35.73 C58.19 41.44, 53.08 48.19, 47.6 51.19 C42.12 54.19, 34.24 54.78, 27.5 53.71 C20.77 52.65, 11.75 48.93, 7.22 44.81 C2.69 40.69, 0.57 34.65, 0.32 28.98 C0.07 23.31, 1.63 15.6, 5.74 10.8 C9.84 6, 17.77 1.21, 24.95 0.18 C32.12 -0.84, 44.53 3.78, 48.79 4.67 C53.04 5.55, 50.76 5.24, 50.5 5.5 M22.95 1.24 C29.47 -0.17, 39.91 1.04, 45.99 3.54 C52.06 6.04, 56.61 11.25, 59.39 16.24 C62.17 21.24, 64.28 28.03, 62.67 33.49 C61.06 38.95, 55.39 45.3, 49.72 49.01 C44.05 52.72, 35.5 55.98, 28.64 55.75 C21.79 55.51, 13.42 52.22, 8.61 47.61 C3.79 43, 0.44 33.86, -0.23 28.08 C-0.91 22.29, 0.65 17.43, 4.57 12.9 C8.48 8.38, 20.1 3.01, 23.27 0.95 C26.44 -1.11, 23.28 -0.02, 23.58 0.55" stroke="#000000" stroke-width="1" fill="none"></path></g><g stroke-linecap="round"><g transform="translate(64.7836538461537 272.1875) rotate(0 -1.1050631024595532 37.486992784249594)"><path d="M-0.44 1.17 C-0.73 13.63, -2.45 62.19, -2.91 74.24 M1.53 0.73 C1.21 12.94, -2.82 60.94, -3.74 72.71" stroke="#000000" stroke-width="1" fill="none"></path></g></g><g stroke-linecap="round"><g transform="translate(29.783653846153697 297.1874999999998) rotate(0 34.78022539224935 0.05560323429131131)"><path d="M1.17 0.22 C12.8 0.17, 58.02 -0.67, 69.24 -0.68 M0.32 -0.72 C11.94 -0.52, 57.62 1, 68.88 0.82" stroke="#000000" stroke-width="1" fill="none"></path></g></g><g stroke-linecap="round"><g transform="translate(61.0336538461537 346.5624999999998) rotate(0 11.593141879406744 20.821660843598693)"><path d="M0.22 1.12 C4.34 7.75, 20.16 34.39, 24.32 40.99 M-1.13 0.66 C2.87 7.43, 19.01 32.16, 23.34 39.05" stroke="#000000" stroke-width="1" fill="none"></path></g></g><g stroke-linecap="round"><g transform="translate(35.4086538461537 387.8124999999998) rotate(0 13.114893451598448 -21.43030856553935)"><path d="M1.12 -0.06 C5.25 -6.94, 21.89 -34, 25.99 -41.09 M0.24 -1.14 C4.15 -8.38, 21.11 -36.05, 25.23 -42.8" stroke="#000000" stroke-width="1" fill="none"></path></g></g><g transform="translate(110.49999999999977 10) rotate(0 167.5 22.5)"><text x="0" y="32" font-family="Virgil, Segoe UI Emoji" font-size="36px" fill="#000000" text-anchor="start" style="white-space: pre;" direction="ltr">Verifying the claims</text></g><g stroke-linecap="round" transform="translate(146.92307692307656 227.11538461538453) rotate(0 45 73.07692307692304)"><path d="M-1.76 -1.77 C35.28 -0.01, 70.38 0.12, 88.82 0.59 M0.08 -0.98 C29.23 0.12, 58.12 0.89, 90.32 -0.01 M89.57 -0.56 C91.57 45.34, 90.28 89.14, 89.93 145.51 M90.24 -0.58 C89.79 46.47, 90.35 91.84, 89.42 145.2 M89.84 144.38 C66.68 144.82, 46.89 146.4, -1.39 146.95 M90.89 145.17 C68.49 145.61, 49.08 145.29, -0.11 145.95 M0.26 146.53 C2.29 109.42, 0.99 71.96, -1.25 -0.99 M-0.49 146.25 C0.35 111.38, 0.17 75.57, 0.38 -0.14" stroke="#000000" stroke-width="1" fill="none"></path></g><g stroke-linecap="round" transform="translate(185.38461538461502 350.58630393996236) rotate(0 9.230769230769226 7.879924953095667)"><path d="M12.65 0.19 C14.35 0.82, 16.72 3.89, 17.51 5.57 C18.3 7.25, 17.98 8.84, 17.37 10.27 C16.76 11.69, 15.48 13.17, 13.85 14.11 C12.23 15.05, 9.52 16.03, 7.62 15.9 C5.72 15.76, 3.56 14.6, 2.45 13.3 C1.34 12, 0.98 9.87, 0.96 8.1 C0.94 6.32, 1.34 4.03, 2.31 2.62 C3.28 1.22, 4.87 0, 6.75 -0.33 C8.64 -0.67, 12.18 0.38, 13.64 0.64 C15.1 0.89, 15.47 1.08, 15.5 1.21 M13.08 0.31 C15.2 0.67, 17.52 2.3, 18.18 3.96 C18.85 5.62, 17.64 8.63, 17.05 10.27 C16.46 11.9, 16.16 12.65, 14.67 13.77 C13.18 14.89, 10.17 16.8, 8.13 16.99 C6.08 17.18, 3.49 16.26, 2.39 14.91 C1.29 13.56, 1.95 10.59, 1.53 8.9 C1.11 7.21, -1.02 6.05, -0.12 4.77 C0.77 3.49, 4.72 2.14, 6.9 1.23 C9.07 0.31, 11.76 -0.45, 12.93 -0.74 C14.09 -1.02, 14.16 -0.7, 13.89 -0.5" stroke="#000000" stroke-width="1" fill="none"></path></g><g stroke-linecap="round" transform="translate(153.84615384615347 234.80769230769226) rotate(0 37.69230769230768 53.84615384615381)"><path d="M1.45 -1.44 C19.7 1.17, 37.53 1.6, 75.29 -1.67 M-0.65 0.82 C26.67 0.82, 55.36 -0.05, 74.44 0.61 M73.72 1.94 C74.4 36.25, 74.9 74.69, 74.97 106.19 M74.42 -0.73 C74.75 33.3, 75.34 68.16, 75.93 107.42 M75.94 108.45 C53.98 109.16, 29.9 109.69, 1.73 108.41 M74.78 108.29 C58.63 108.22, 42.59 108.69, 0.35 107.16 M-0.18 105.99 C-0.95 82.29, -2.6 51.49, 0.72 0.55 M0.65 108.05 C-0.62 69.59, -1.45 33.17, -0.16 0.73" stroke="#000000" stroke-width="1" fill="none"></path></g><g stroke-linecap="round" transform="translate(360.7692307692305 89.42307692307668) rotate(0 95.76923076923077 37.30769230769238)"><path d="M-0.48 1.78 C45.28 0.3, 91.28 0.74, 192.72 0.41 M-0.97 -0.05 C55.75 0.32, 110.28 1.27, 191.47 -0.75 M191.38 1.48 C190.86 28.26, 189.96 58.95, 191.65 75.28 M191.52 0.1 C190.75 20.46, 191.27 41.51, 191.25 73.71 M191.42 75.41 C124.22 74.31, 59.77 72.08, 0.56 76.16 M191.17 73.91 C138.75 76.07, 86.49 75.07, 0.85 75.31 M-1.4 74.94 C-0.28 56.63, -2.17 39.64, -0.22 -1.69 M0.18 74.95 C1.32 50.58, -0.52 29.1, -0.13 0" stroke="#000000" stroke-width="1" fill="none"></path></g><g stroke-linecap="round"><g transform="translate(455.3846153846149 167.11538461538464) rotate(0 -0.12165949811435439 146.89885233817228)"><path d="M0.42 0.36 C0.5 49.27, 0.7 244.08, 0.46 292.81 M-0.81 -0.5 C-0.85 48.67, -0.61 245.21, -0.24 294.29" stroke="#000000" stroke-width="1" fill="none"></path></g></g><g stroke-linecap="round" transform="translate(587.6923076923075 88.65384615384619) rotate(0 65.76923076923083 40.76923076923072)"><path d="M-0.15 -1.58 C43.56 -0.18, 87.03 0.94, 131.42 0.53 M0.37 -0.64 C51.37 -0.21, 102.01 -0.52, 131.31 0.69 M129.75 -1.2 C129.41 29.76, 129.89 62.88, 131.73 80.64 M131.44 -0.8 C130.61 29.96, 130.86 59.44, 131.08 81.12 M129.62 80.78 C85.01 80.31, 39.03 82.46, -1.03 80.1 M130.73 80.7 C100.38 83.22, 70.82 82.4, 0.63 82.43 M-1.9 81.18 C0.22 48.13, 0.45 20.31, -0.81 -0.53 M-0.91 81.44 C0.55 63.06, 1.29 43.79, -0.75 -0.57" stroke="#000000" stroke-width="1" fill="none"></path></g><g stroke-linecap="round"><g transform="translate(654.6153846153842 170.96153846153845) rotate(0 -0.3526741862297058 149.1732920990923)"><path d="M-1.17 0 C-1.17 49.92, 0.3 249.67, 0.47 299.39 M0.41 -1.04 C0.26 48.56, 0 247.65, -0.24 297.75" stroke="#000000" stroke-width="1" fill="none"></path></g></g><g transform="translate(372.23076923076894 117.26923076923106) rotate(0 82.5 12.5)"><text x="82.5" y="18" font-family="Virgil, Segoe UI Emoji" font-size="20px" fill="#000000" text-anchor="middle" style="white-space: pre;" direction="ltr">proxy.idem.com.au</text></g><g transform="translate(604.7307692307692 115.80769230769238) rotate(0 44.5 12.5)"><text x="44.5" y="18" font-family="Virgil, Segoe UI Emoji" font-size="20px" fill="#000000" text-anchor="middle" style="white-space: pre;" direction="ltr">Green Id</text></g><g stroke-linecap="round"><g transform="translate(270.11587374433054 248.65384615384608) rotate(0 89.20083286349592 -0.03302920782005003)"><path d="M0.02 0.15 C29.83 -0.06, 149.74 -0.33, 179.82 -0.52 M-1.42 -0.82 C28.14 -0.93, 148.59 0.64, 178.84 0.75" stroke="#000000" stroke-width="1" fill="none"></path></g><g transform="translate(270.11587374433054 248.65384615384608) rotate(0 89.20083286349592 -0.03302920782005003)"><path d="M150.82 10.66 C160.41 7.99, 170.43 3.28, 177.51 1.42 M151.54 11.46 C158.35 7.81, 164.83 6.51, 178.41 0.75" stroke="#000000" stroke-width="1" fill="none"></path></g><g transform="translate(270.11587374433054 248.65384615384608) rotate(0 89.20083286349592 -0.03302920782005003)"><path d="M151 -9.86 C160.65 -4.71, 170.6 -1.61, 177.51 1.42 M151.72 -9.07 C158.37 -7.73, 164.81 -4.04, 178.41 0.75" stroke="#000000" stroke-width="1" fill="none"></path></g></g><g transform="translate(274.4999999999998 259.6538461538462) rotate(0 67 12.5)"><text x="0" y="18" font-family="Virgil, Segoe UI Emoji" font-size="20px" fill="#000000" text-anchor="start" style="white-space: pre;" direction="ltr">/POST claims</text></g><g stroke-linecap="round"><g transform="translate(460.76923076923015 340.96153846153845) rotate(0 95.57796323487571 0.29974688248438497)"><path d="M-0.66 0.68 C30.9 0.57, 157.89 -0.37, 189.68 -0.38 M1.19 -0.02 C33.08 0.02, 160.52 1.18, 191.82 0.95" stroke="#000000" stroke-width="1" fill="none"></path></g><g transform="translate(460.76923076923015 340.96153846153845) rotate(0 95.57796323487571 0.29974688248438497)"><path d="M164.73 9.34 C172.15 6.84, 183.04 2.87, 192.03 1.32 M163.33 11.2 C174.07 7.27, 184.37 3.67, 192.38 1.68" stroke="#000000" stroke-width="1" fill="none"></path></g><g transform="translate(460.76923076923015 340.96153846153845) rotate(0 95.57796323487571 0.29974688248438497)"><path d="M164.77 -11.18 C172.23 -6.98, 183.1 -4.25, 192.03 1.32 M163.37 -9.32 C173.91 -5.94, 184.2 -2.24, 192.38 1.68" stroke="#000000" stroke-width="1" fill="none"></path></g></g><g stroke-linecap="round"><g transform="translate(455.3846153846149 446.3461538461538) rotate(0 -100.20444366038805 0.49121129644373696)"><path d="M-0.75 1.1 C-34.18 0.99, -167.94 -0.15, -201.46 -0.26 M1.05 0.64 C-31.91 0.67, -165.68 1.53, -199.11 1.14" stroke="#000000" stroke-width="1" fill="none"></path></g><g transform="translate(455.3846153846149 446.3461538461538) rotate(0 -100.20444366038805 0.49121129644373696)"><path d="M-169.07 -10.23 C-177.7 -8.78, -182.92 -6.44, -198.09 1.72 M-170.81 -9.42 C-177.88 -6.91, -185.53 -4.82, -198.96 0.84" stroke="#000000" stroke-width="1" fill="none"></path></g><g transform="translate(455.3846153846149 446.3461538461538) rotate(0 -100.20444366038805 0.49121129644373696)"><path d="M-169.09 10.29 C-177.79 7.09, -183.01 4.77, -198.09 1.72 M-170.84 11.1 C-178.03 8.6, -185.67 5.67, -198.96 0.84" stroke="#000000" stroke-width="1" fill="none"></path></g></g><g transform="translate(159.99999999999977 194.26923076923106) rotate(0 29 12.5)"><text x="0" y="18" font-family="Virgil, Segoe UI Emoji" font-size="20px" fill="#000000" text-anchor="start" style="white-space: pre;" direction="ltr">Mobile</text></g><g transform="translate(10 397.3461538461538) rotate(0 51 12.5)"><text x="51" y="18" font-family="Virgil, Segoe UI Emoji" font-size="20px" fill="#000000" text-anchor="middle" style="white-space: pre;" direction="ltr">Idem User</text></g><g stroke-linecap="round"><g transform="translate(464.61538461538464 251.93414108386855) rotate(0 37.58669334266267 16.064525677994595)"><path d="M-0.17 0.27 C11.3 0.01, 58.81 -7.71, 69.94 -2.4 C81.08 2.92, 78.11 26.17, 66.65 32.18 C55.19 38.19, 12.18 33.04, 1.19 33.67 M-1.72 -0.18 C9.49 -0.24, 57.68 -6.53, 68.95 -0.9 C80.22 4.73, 77.21 27.76, 65.92 33.61 C54.62 39.45, 11.75 34.22, 1.16 34.16" stroke="#000000" stroke-width="1" fill="none"></path></g><g transform="translate(464.61538461538464 251.93414108386855) rotate(0 37.58669334266267 16.064525677994595)"><path d="M31.84 25.5 C18.54 29.04, 7.78 31.38, -0.78 32.53 M30.7 24.74 C18.85 29.8, 8.13 32.48, 0.49 34.12" stroke="#000000" stroke-width="1" fill="none"></path></g><g transform="translate(464.61538461538464 251.93414108386855) rotate(0 37.58669334266267 16.064525677994595)"><path d="M30.59 45.98 C17.77 41.52, 7.51 35.85, -0.78 32.53 M29.44 45.22 C18.07 42.22, 7.85 36.83, 0.49 34.12" stroke="#000000" stroke-width="1" fill="none"></path></g></g><g transform="translate(554.6153846153844 258.8846153846155) rotate(0 20 12.5)"><text x="0" y="18" font-family="Virgil, Segoe UI Emoji" font-size="20px" fill="#000000" text-anchor="start" style="white-space: pre;" direction="ltr">Map</text></g><g transform="translate(486.1538461538456 354.26923076923083) rotate(0 65 12.5)"><text x="0" y="18" font-family="Virgil, Segoe UI Emoji" font-size="20px" fill="#000000" text-anchor="start" style="white-space: pre;" direction="ltr">/POST verify</text></g><g stroke-linecap="round"><g transform="translate(461.92307692307656 400.74229028899435) rotate(0 37.989621344867146 16.46360516144466)"><path d="M-0.43 0.13 C11.08 -0.07, 58.77 -6.05, 69.74 -0.45 C80.72 5.15, 76.63 27.65, 65.42 33.72 C54.21 39.8, 13.14 35.83, 2.49 35.99 M1.55 -0.85 C12.81 -1.43, 57.62 -7.51, 68.64 -2.06 C79.67 3.38, 78.63 25.29, 67.71 31.84 C56.79 38.39, 14.43 36.79, 3.14 37.24" stroke="#000000" stroke-width="1" fill="none"></path></g><g transform="translate(461.92307692307656 400.74229028899435) rotate(0 37.989621344867146 16.46360516144466)"><path d="M31.47 26.3 C22.86 28.49, 12.59 35.47, 3.61 36.97 M31.99 26.14 C25.57 29.24, 18.9 31.1, 2.66 37.31" stroke="#000000" stroke-width="1" fill="none"></path></g><g transform="translate(461.92307692307656 400.74229028899435) rotate(0 37.989621344867146 16.46360516144466)"><path d="M31.63 46.82 C22.83 41.65, 12.51 41.26, 3.61 36.97 M32.15 46.66 C25.88 45.38, 19.18 42.85, 2.66 37.31" stroke="#000000" stroke-width="1" fill="none"></path></g></g><g transform="translate(555.3846153846149 405.03846153846155) rotate(0 33.5 25)"><text x="0" y="18" font-family="Virgil, Segoe UI Emoji" font-size="20px" fill="#000000" text-anchor="start" style="white-space: pre;" direction="ltr">ESDCA</text><text x="0" y="43" font-family="Virgil, Segoe UI Emoji" font-size="20px" fill="#000000" text-anchor="start" style="white-space: pre;" direction="ltr">Sign</text></g><g transform="translate(313.07692307692275 454.2692307692307) rotate(0 55 25.000000000000057)"><text x="0" y="18" font-family="Virgil, Segoe UI Emoji" font-size="20px" fill="#000000" text-anchor="start" style="white-space: pre;" direction="ltr">Signed WC3</text><text x="0" y="43" font-family="Virgil, Segoe UI Emoji" font-size="20px" fill="#000000" text-anchor="start" style="white-space: pre;" direction="ltr">credentails</text></g></svg>