<svg version="1.1" xmlns="http://www.w3.org/2000/svg" viewBox="0 0 1259.114066490091 442.00000000000006" width="1259.114066490091" height="442.00000000000006">
  <!-- svg-source:excalidraw -->
  
  <defs>
    <style class="style-fonts">
      @font-face {
        font-family: "Virgil";
        src: url("https://excalidraw.com/Virgil.woff2");
      }
      @font-face {
        font-family: "Cascadia";
        src: url("https://excalidraw.com/Cascadia.woff2");
      }
    </style>
    
  </defs>
  <rect x="0" y="0" width="1259.114066490091" height="442.00000000000006" fill="#ffffff"></rect><g stroke-linecap="round" transform="translate(78.22522101854577 166.81821294460957) rotate(0 31.249999999999943 27.18749999999997)"><path d="M30.24 0.21 C36.4 -0.4, 44.27 2.56, 49.36 6.06 C54.45 9.57, 59.32 15.74, 60.78 21.22 C62.25 26.69, 61.09 33.76, 58.17 38.92 C55.25 44.07, 49.23 49.85, 43.25 52.14 C37.27 54.42, 28.56 54.2, 22.28 52.64 C16.01 51.07, 9.32 47.42, 5.61 42.75 C1.9 38.07, -0.71 30.61, 0.01 24.59 C0.73 18.56, 4.84 10.6, 9.94 6.62 C15.04 2.63, 27.07 1.67, 30.62 0.66 C34.17 -0.34, 31.06 0.13, 31.22 0.58 M30.95 0.05 C36.88 0.16, 45.43 3.69, 50.71 7.53 C56 11.36, 61.59 17.35, 62.67 23.04 C63.75 28.73, 60.88 36.56, 57.21 41.68 C53.54 46.8, 46.72 51.82, 40.64 53.77 C34.56 55.73, 26.74 55.8, 20.71 53.4 C14.69 51.01, 7.75 44.52, 4.47 39.42 C1.2 34.31, 0.02 28.62, 1.06 22.79 C2.1 16.96, 5.63 8.28, 10.73 4.43 C15.84 0.57, 28.12 0.4, 31.69 -0.37 C35.26 -1.14, 32.16 -0.57, 32.16 -0.21" stroke="#000000" stroke-width="1" fill="none"></path></g><g stroke-linecap="round"><g transform="translate(107.60022101854565 221.81821294460957) rotate(0 -1.5085859884960655 36.616287400968446)"><path d="M0.08 0.11 C-0.43 12.32, -2.48 61.03, -3.03 73.2 M-0.07 0.03 C-0.59 12.2, -2.55 60.75, -3.1 72.97" stroke="#000000" stroke-width="1" fill="none"></path></g></g><mask></mask><g stroke-linecap="round"><g transform="translate(72.60022101854577 246.81821294460946) rotate(0 34.04245325241675 -0.35532648646011467)"><path d="M0.12 0.04 C11.47 -0.1, 56.73 -0.62, 68.08 -0.75 M0 -0.07 C11.32 -0.2, 56.59 -0.53, 67.95 -0.63" stroke="#000000" stroke-width="1" fill="none"></path></g></g><mask></mask><g stroke-linecap="round"><g transform="translate(103.85022101854565 296.19321294460946) rotate(0 12.25191240781345 20.378384382812328)"><path d="M0.22 0.09 C4.29 6.89, 20.4 34.1, 24.44 40.82 M0.06 -0.06 C4.11 6.68, 20.24 33.75, 24.3 40.51" stroke="#000000" stroke-width="1" fill="none"></path></g></g><mask></mask><g stroke-linecap="round"><g transform="translate(78.22522101854577 337.44321294460946) rotate(0 12.787006107517072 -20.87651517976255)"><path d="M-0.03 0.12 C4.24 -6.86, 21.18 -34.89, 25.46 -41.87 M-0.33 -0.02 C4.03 -6.96, 21.59 -34.55, 25.9 -41.57" stroke="#000000" stroke-width="1" fill="none"></path></g></g><mask></mask><g stroke-linecap="round"><g transform="translate(154.78772101854565 252.3230206369173) rotate(0 62.2023972226674 -0.651756372308796)"><path d="M0.04 -0.07 C20.77 -0.33, 103.78 -1.26, 124.53 -1.52 M-0.13 0.22 C20.59 -0.01, 103.72 -1.04, 124.49 -1.32" stroke="#000000" stroke-width="1" fill="none"></path></g><g transform="translate(154.78772101854565 252.3230206369173) rotate(0 62.2023972226674 -0.651756372308796)"><path d="M96.43 9.3 C107.38 5.38, 118.62 1.18, 124.49 -1.32 M96.43 9.3 C103.42 6.59, 110.59 3.87, 124.49 -1.32" stroke="#000000" stroke-width="1" fill="none"></path></g><g transform="translate(154.78772101854565 252.3230206369173) rotate(0 62.2023972226674 -0.651756372308796)"><path d="M96.17 -11.22 C107.22 -7.04, 118.57 -3.13, 124.49 -1.32 M96.17 -11.22 C103.23 -8.75, 110.46 -6.29, 124.49 -1.32" stroke="#000000" stroke-width="1" fill="none"></path></g></g><mask></mask><g transform="translate(10 49.28346387176774) rotate(0 145.5 22.5)"><text x="0" y="0" font-family="Virgil, Segoe UI Emoji" font-size="36px" fill="#000000" text-anchor="start" style="white-space: pre;" direction="ltr" dominant-baseline="text-before-edge">Sign up via Idem</text></g><g stroke-linecap="round"><g transform="translate(395.18413588125327 262.3610985023345) rotate(0 91.30980838789333 0.2760506920315322)"><path d="M-0.08 -0.14 C30.35 -0.06, 152.25 0.43, 182.7 0.58 M0.15 0.1 C30.55 0.19, 152.1 0.56, 182.57 0.7" stroke="#000000" stroke-width="1" fill="none"></path></g><g transform="translate(395.18413588125327 262.3610985023345) rotate(0 91.30980838789333 0.2760506920315322)"><path d="M154.34 10.85 C164.74 6.96, 175.43 3, 182.57 0.7 M154.34 10.85 C163.02 7.71, 171.95 4.54, 182.57 0.7" stroke="#000000" stroke-width="1" fill="none"></path></g><g transform="translate(395.18413588125327 262.3610985023345) rotate(0 91.30980838789333 0.2760506920315322)"><path d="M154.41 -9.67 C164.8 -5.79, 175.46 -1.98, 182.57 0.7 M154.41 -9.67 C163.04 -6.46, 171.95 -3.29, 182.57 0.7" stroke="#000000" stroke-width="1" fill="none"></path></g></g><mask></mask><g stroke-linecap="round" transform="translate(292.044382387112 188.79587860384237) rotate(0 45 73.07692307692304)"><path d="M0 0 C26.74 0.7, 54.83 0.36, 90 0 M0 0 C29.74 -0.36, 59.56 0.1, 90 0 M90 0 C88.45 32.92, 87.96 64.68, 90 146.15 M90 0 C89.91 37.32, 90.62 76.75, 90 146.15 M90 146.15 C70.75 145.09, 51.95 146.74, 0 146.15 M90 146.15 C70.83 147.15, 50.95 147.13, 0 146.15 M0 146.15 C-1.46 101.62, 1.56 58.37, 0 0 M0 146.15 C-1.08 104.91, -0.04 64.42, 0 0" stroke="#000000" stroke-width="1" fill="none"></path></g><g stroke-linecap="round" transform="translate(330.5059208486506 312.2667979284202) rotate(0 9.230769230769226 7.879924953095667)"><path d="M9.09 0 C10.98 -0.14, 13.56 0.63, 15.12 1.7 C16.68 2.77, 18.11 4.75, 18.45 6.41 C18.79 8.07, 18.13 10.22, 17.14 11.67 C16.16 13.12, 14.35 14.55, 12.55 15.13 C10.75 15.71, 8.19 15.71, 6.34 15.17 C4.49 14.62, 2.48 13.26, 1.45 11.86 C0.43 10.46, -0.05 8.47, 0.21 6.78 C0.48 5.1, 1.54 2.88, 3.02 1.75 C4.51 0.63, 8.11 0.29, 9.12 0.04 C10.12 -0.21, 9.05 0.14, 9.03 0.25 M8.85 0.11 C10.81 -0.05, 13.75 0.74, 15.33 1.74 C16.91 2.75, 17.99 4.48, 18.32 6.14 C18.65 7.8, 18.28 10.21, 17.31 11.71 C16.35 13.22, 14.4 14.59, 12.51 15.17 C10.62 15.75, 7.83 15.75, 6 15.19 C4.16 14.63, 2.51 13.23, 1.52 11.83 C0.53 10.43, -0.27 8.45, 0.06 6.79 C0.38 5.13, 1.99 2.95, 3.47 1.86 C4.95 0.77, 8.02 0.5, 8.94 0.23 C9.87 -0.03, 8.95 0.21, 9.01 0.27" stroke="#000000" stroke-width="1" fill="none"></path></g><g stroke-linecap="round" transform="translate(298.96745931018893 196.48818629615) rotate(0 37.69230769230768 53.84615384615381)"><path d="M0 0 C23.27 0.17, 47.76 -0.2, 75.38 0 M0 0 C23.62 0.38, 44.7 0.04, 75.38 0 M75.38 0 C73.02 35.33, 73.97 68.61, 75.38 107.69 M75.38 0 C74.28 41.09, 73.47 82.21, 75.38 107.69 M75.38 107.69 C57.44 108.9, 40.8 108.38, 0 107.69 M75.38 107.69 C44.35 107.84, 15.13 107.74, 0 107.69 M0 107.69 C2.33 77.75, 0.38 50.32, 0 0 M0 107.69 C1.06 64.39, 0.65 22.28, 0 0" stroke="#000000" stroke-width="1" fill="none"></path></g><g transform="translate(306.12130546403534 145.94972475768907) rotate(0 29 12.5)"><text x="0" y="0" font-family="Virgil, Segoe UI Emoji" font-size="20px" fill="#000000" text-anchor="start" style="white-space: pre;" direction="ltr" dominant-baseline="text-before-edge">Mobile</text></g><g transform="translate(319.0897276802717 229.67693193358463) rotate(0 18 25)"><text x="18" y="0" font-family="Virgil, Segoe UI Emoji" font-size="20px" fill="#000000" text-anchor="middle" style="white-space: pre;" direction="ltr" dominant-baseline="text-before-edge">Sign</text><text x="18" y="25" font-family="Virgil, Segoe UI Emoji" font-size="20px" fill="#000000" text-anchor="middle" style="white-space: pre;" direction="ltr" dominant-baseline="text-before-edge">Up</text></g><g transform="translate(54.54029635128154 349.8554288456369) rotate(0 51 12.5)"><text x="51" y="0" font-family="Virgil, Segoe UI Emoji" font-size="20px" fill="#000000" text-anchor="middle" style="white-space: pre;" direction="ltr" dominant-baseline="text-before-edge">Idem User</text></g><g stroke-linecap="round" transform="translate(582.9483698596609 195.59591201001894) rotate(0 95.13988156026062 62.51940778074649)"><path d="M0 0 C53.77 -0.48, 108.67 -0.1, 190.28 0 M0 0 C45.49 -2.23, 88.92 -1.97, 190.28 0 M190.28 0 C189.26 26.84, 191.12 56.43, 190.28 125.04 M190.28 0 C190.51 40.9, 189.41 80.05, 190.28 125.04 M190.28 125.04 C148.16 122.46, 107.25 122.91, 0 125.04 M190.28 125.04 C125.09 126.14, 60.92 125.55, 0 125.04 M0 125.04 C-0.24 81.45, 1 41.07, 0 0 M0 125.04 C1.61 78.24, 1.27 31.26, 0 0" stroke="#000000" stroke-width="1" fill="none"></path></g><g transform="translate(593.4105043416776 247.19727697768326) rotate(0 82.5 12.5)"><text x="82.5" y="0" font-family="Virgil, Segoe UI Emoji" font-size="20px" fill="#000000" text-anchor="middle" style="white-space: pre;" direction="ltr" dominant-baseline="text-before-edge">proxy.idem.com.au</text></g><g transform="translate(401.97171842945727 282.4984350215323) rotate(0 81.5 12.5)"><text x="81.5" y="0" font-family="Virgil, Segoe UI Emoji" font-size="20px" fill="#000000" text-anchor="middle" style="white-space: pre;" direction="ltr" dominant-baseline="text-before-edge">Send WC3 claims</text></g><g transform="translate(402.4222487799459 220.14282309908697) rotate(0 66.5 12.5)"><text x="66.5" y="0" font-family="Virgil, Segoe UI Emoji" font-size="20px" fill="#000000" text-anchor="middle" style="white-space: pre;" direction="ltr" dominant-baseline="text-before-edge">POST /signup</text></g><g stroke-linecap="round" transform="translate(1001.1140664900911 195.89094944665004) rotate(0 124 66)"><path d="M0 0 C76.07 -0.17, 151.02 2.37, 248 0 M0 0 C73.1 -1.88, 147.43 -1.47, 248 0 M248 0 C249.83 31.47, 250.75 66.02, 248 132 M248 0 C247.69 46.22, 248.62 91.01, 248 132 M248 132 C150.54 132.69, 54.51 131.82, 0 132 M248 132 C159.02 131.46, 70.6 131.2, 0 132 M0 132 C-0.18 83.42, 0.71 36.56, 0 0 M0 132 C0.12 99.5, -0.25 67.16, 0 0" stroke="#000000" stroke-width="1" fill="none"></path></g><g transform="translate(1053.114066490091 248.89094944665004) rotate(0 80 12.5)"><text x="0" y="0" font-family="Virgil, Segoe UI Emoji" font-size="20px" fill="#000000" text-anchor="start" style="white-space: pre;" direction="ltr" dominant-baseline="text-before-edge">api.exchange.com</text></g><g stroke-linecap="round"><g transform="translate(773.1140664900911 254.5857557731685) rotate(0 111.43828158457063 1.2385472711064267)"><path d="M-0.06 0.15 C37.09 0.5, 185.78 1.89, 222.94 2.26 M0.18 0.09 C37.3 0.45, 185.62 1.99, 222.79 2.39" stroke="#000000" stroke-width="1" fill="none"></path></g><g transform="translate(773.1140664900911 254.5857557731685) rotate(0 111.43828158457063 1.2385472711064267)"><path d="M194.49 12.35 C204.44 8.84, 213.6 5.34, 222.79 2.39 M194.49 12.35 C202.04 9.61, 209.96 7.07, 222.79 2.39" stroke="#000000" stroke-width="1" fill="none"></path></g><g transform="translate(773.1140664900911 254.5857557731685) rotate(0 111.43828158457063 1.2385472711064267)"><path d="M194.71 -8.17 C204.61 -4.66, 213.69 -1.14, 222.79 2.39 M194.71 -8.17 C202.2 -5.36, 210.06 -2.34, 222.79 2.39" stroke="#000000" stroke-width="1" fill="none"></path></g></g><mask></mask><g transform="translate(796.1140664900911 213.89094944665004) rotate(0 66.5 12.5)"><text x="0" y="0" font-family="Virgil, Segoe UI Emoji" font-size="20px" fill="#000000" text-anchor="start" style="white-space: pre;" direction="ltr" dominant-baseline="text-before-edge">POST /signup</text></g><g transform="translate(1058.204470778861 345) rotate(0 62.5 12.5)"><text x="62.5" y="0" font-family="Virgil, Segoe UI Emoji" font-size="20px" fill="#000000" text-anchor="middle" style="white-space: pre;" direction="ltr" dominant-baseline="text-before-edge">Partner API</text></g><g stroke-linecap="round" transform="translate(942.7044707788609 82) rotate(0 15 175.00000000000003)"><path d="M0 0 C0 0, 0 0, 0 0 M0 0 C0 0, 0 0, 0 0 M-0.26 6.4 C1.09 4.8, 2.68 3.01, 4.99 0.36 M-0.26 6.4 C1.01 5.03, 2.08 3.65, 4.99 0.36 M0.13 12.04 C2.87 8.93, 5.81 5.16, 10.63 -0.03 M0.13 12.04 C3.02 8.78, 6.13 5.38, 10.63 -0.03 M-0.13 18.44 C6.62 11.28, 12.25 3.64, 15.62 0.33 M-0.13 18.44 C5.08 12.11, 10.56 6.21, 15.62 0.33 M0.27 24.08 C5.99 18.03, 11.31 12.08, 21.26 -0.07 M0.27 24.08 C5.37 18.16, 11.02 12.12, 21.26 -0.07 M0 30.48 C7.18 21.35, 15.54 13.56, 26.25 0.29 M0 30.48 C7.85 21.84, 15.18 12.99, 26.25 0.29 M-0.26 36.88 C10.43 23.91, 22.15 10.95, 30.58 1.41 M-0.26 36.88 C8.06 27.03, 17.16 16.88, 30.58 1.41 M0.14 42.52 C6.44 34.97, 12.88 27.32, 30.32 7.8 M0.14 42.52 C6.96 34.86, 13.84 26.62, 30.32 7.8 M-0.12 48.92 C8.2 39.66, 16.3 30.01, 30.06 14.2 M-0.12 48.92 C6.88 40.87, 14.04 32.72, 30.06 14.2 M0.27 54.56 C6.8 46.94, 14.14 39.07, 30.45 19.84 M0.27 54.56 C11.04 41.96, 22.15 29.53, 30.45 19.84 M0.01 60.96 C10.08 49.07, 20.1 37.78, 30.19 26.24 M0.01 60.96 C9.89 49.41, 19.93 37.51, 30.19 26.24 M-0.25 67.36 C10.59 55.45, 21.17 42.54, 30.58 31.89 M-0.25 67.36 C11.6 53.42, 23.64 40, 30.58 31.89 M0.14 73 C12.4 59.3, 24.03 45.42, 30.32 38.28 M0.14 73 C11.4 60.02, 22.94 46.59, 30.32 38.28 M-0.12 79.4 C10.86 66, 22.5 53.09, 30.06 44.68 M-0.12 79.4 C7.64 70.84, 14.93 62.18, 30.06 44.68 M0.28 85.04 C12.23 71.91, 23.59 57.74, 30.45 50.32 M0.28 85.04 C9.78 73.81, 19.67 62.37, 30.45 50.32 M0.01 91.44 C9.86 80.51, 19.27 69.07, 30.19 56.72 M0.01 91.44 C11.07 78.57, 22.34 65.79, 30.19 56.72 M-0.25 97.84 C9.66 87.03, 19.57 75.47, 30.59 62.36 M-0.25 97.84 C9.01 87.4, 18.27 76.99, 30.59 62.36 M0.15 103.48 C10.99 91.54, 21.92 78.55, 30.33 68.76 M0.15 103.48 C7.05 95.79, 13.54 87.74, 30.33 68.76 M-0.11 109.88 C7.91 100.26, 17.08 90.36, 30.06 75.16 M-0.11 109.88 C11.23 96.56, 23.01 83.59, 30.06 75.16 M0.28 115.52 C7.84 107.08, 14.29 98.78, 30.46 80.8 M0.28 115.52 C11.27 102.65, 22.32 90.35, 30.46 80.8 M0.02 121.92 C7.45 112.66, 15.77 103.67, 30.2 87.2 M0.02 121.92 C7.48 113.59, 14.33 105.37, 30.2 87.2 M-0.24 128.32 C9.22 116.94, 18.77 105.73, 30.59 92.84 M-0.24 128.32 C5.86 121.25, 12.12 113.92, 30.59 92.84 M0.15 133.96 C10.18 122.53, 18.91 112.43, 30.33 99.24 M0.15 133.96 C8.75 123.9, 17.24 114.15, 30.33 99.24 M-0.11 140.36 C9.39 128.85, 19.27 118.16, 30.07 105.64 M-0.11 140.36 C6.6 132.9, 12.86 125.29, 30.07 105.64 M0.29 146 C12.04 131.83, 24.02 118.62, 30.46 111.28 M0.29 146 C9.86 135.35, 19.34 124.29, 30.46 111.28 M0.02 152.4 C11.28 139.31, 22.76 126.31, 30.2 117.68 M0.02 152.4 C10.88 140.25, 21.54 128.01, 30.2 117.68 M-0.24 158.8 C9.78 146.86, 20.72 134.8, 30.6 123.32 M-0.24 158.8 C8.2 149.18, 16.25 139.79, 30.6 123.32 M0.16 164.44 C11.54 151.1, 23.05 137.64, 30.34 129.72 M0.16 164.44 C6.66 156.98, 13.31 149.19, 30.34 129.72 M-0.1 170.84 C7.79 162.01, 15.39 153.29, 30.07 136.12 M-0.1 170.84 C7.96 161.26, 16.42 151.63, 30.07 136.12 M0.29 176.48 C6.42 169.58, 12.81 162, 30.47 141.76 M0.29 176.48 C8.9 166.55, 17.87 156.18, 30.47 141.76 M0.03 182.88 C10.96 170.28, 21.33 158.05, 30.21 148.16 M0.03 182.88 C6.43 175.64, 12.63 168.62, 30.21 148.16 M-0.23 189.27 C9.63 178.01, 20.3 166.34, 29.95 154.56 M-0.23 189.27 C9.3 178.61, 18.7 167.85, 29.95 154.56 M0.16 194.92 C10.14 184.29, 18.85 173.07, 30.34 160.2 M0.16 194.92 C9.89 183.65, 19.76 172.71, 30.34 160.2 M-0.1 201.32 C6.26 193.95, 13 186.67, 30.08 166.6 M-0.1 201.32 C8.4 191.39, 16.93 181.63, 30.08 166.6 M0.3 206.96 C10.16 196.46, 19.57 185.58, 30.47 172.24 M0.3 206.96 C7.45 198.77, 14.27 190.6, 30.47 172.24 M0.03 213.36 C8.16 203.74, 17.37 194.14, 30.21 178.64 M0.03 213.36 C8.7 203.46, 17.34 193.26, 30.21 178.64 M-0.23 219.75 C11.3 206.13, 23.57 192.25, 29.95 185.04 M-0.23 219.75 C9.16 208.51, 18.92 197.65, 29.95 185.04 M0.17 225.4 C11.58 212.51, 22.21 200.52, 30.35 190.68 M0.17 225.4 C7.8 216.8, 15.55 207.84, 30.35 190.68 M-0.09 231.8 C9.21 220.44, 19.28 210, 30.08 197.08 M-0.09 231.8 C9.67 220.68, 19.69 209.32, 30.08 197.08 M0.3 237.44 C8.53 228.65, 16.05 219.89, 30.48 202.72 M0.3 237.44 C12.25 223.9, 23.86 210.45, 30.48 202.72 M0.04 243.84 C8.99 234.04, 16.69 223.93, 30.22 209.12 M0.04 243.84 C11.21 231.34, 22.42 218.38, 30.22 209.12 M-0.22 250.23 C10.49 237.15, 22.09 225.17, 29.96 215.52 M-0.22 250.23 C10.85 237.58, 21.46 224.86, 29.96 215.52 M0.17 255.88 C6.78 248.59, 12.82 241.64, 30.35 221.16 M0.17 255.88 C9.51 245.13, 19.11 234.04, 30.35 221.16 M-0.09 262.27 C7.69 253.65, 15.11 244.69, 30.09 227.56 M-0.09 262.27 C9.16 251.7, 18.59 240.95, 30.09 227.56 M0.3 267.92 C8.75 257.79, 17.79 247.37, 30.48 233.2 M0.3 267.92 C7.18 260.47, 13.41 252.83, 30.48 233.2 M0.04 274.32 C9.2 263.93, 17.95 254.28, 30.22 239.6 M0.04 274.32 C7.08 266.31, 14.05 258.19, 30.22 239.6 M-0.22 280.71 C5.32 274.1, 11.9 266.53, 29.96 246 M-0.22 280.71 C8.57 270.64, 16.94 261.1, 29.96 246 M0.18 286.36 C6.4 279.3, 12.65 272.06, 30.36 251.64 M0.18 286.36 C12.12 272.84, 23.98 258.95, 30.36 251.64 M-0.08 292.75 C8.95 282.41, 18.67 271.71, 30.09 258.04 M-0.08 292.75 C8.43 282.6, 17.38 272.75, 30.09 258.04 M0.31 298.4 C10.15 286.9, 20.88 274.29, 30.49 263.68 M0.31 298.4 C10.14 287.02, 19.98 275.68, 30.49 263.68 M0.05 304.8 C7.47 296.45, 14.88 287.66, 30.23 270.08 M0.05 304.8 C11.16 292.22, 21.83 279.59, 30.23 270.08 M-0.21 311.19 C5.89 304.51, 12.77 296.64, 29.97 276.48 M-0.21 311.19 C6.68 303.28, 13.67 295.14, 29.97 276.48 M0.18 316.84 C10.62 304.41, 21.37 292.35, 30.36 282.12 M0.18 316.84 C6.57 309.28, 13.43 301.72, 30.36 282.12 M-0.08 323.23 C9.1 312.5, 17.69 302.68, 30.1 288.52 M-0.08 323.23 C10.77 310.56, 21.88 298.1, 30.1 288.52 M0.31 328.88 C7.69 321.06, 14.42 312.68, 30.49 294.16 M0.31 328.88 C9.98 317.9, 19.73 306.24, 30.49 294.16 M0.05 335.27 C9.37 324.96, 18.03 314.55, 30.23 300.56 M0.05 335.27 C7.88 326.38, 15.98 317.12, 30.23 300.56 M-0.21 341.67 C11.73 327.51, 23.3 314.68, 29.97 306.96 M-0.21 341.67 C9.43 330.39, 19.02 319.66, 29.97 306.96 M0.19 347.32 C8.22 338.43, 16.17 329, 30.37 312.6 M0.19 347.32 C9.48 336.66, 19.18 325.39, 30.37 312.6 M3.21 349.94 C9.45 342.82, 15.01 336.38, 30.1 319 M3.21 349.94 C8.63 343.59, 14.4 337.32, 30.1 319 M8.19 350.3 C13.64 343.53, 19.06 337.12, 30.5 324.64 M8.19 350.3 C16.65 340.65, 25.47 330.69, 30.5 324.64 M13.84 349.91 C20.48 343.05, 26.47 335.32, 30.24 331.04 M13.84 349.91 C19.6 343.42, 25.44 336.67, 30.24 331.04 M18.82 350.27 C22.09 346.6, 25.37 342.34, 29.98 337.44 M18.82 350.27 C23.43 345.08, 27.57 339.99, 29.98 337.44 M23.81 350.63 C25.02 349.07, 26.37 347.26, 30.37 343.08 M23.81 350.63 C25.65 348.58, 27.53 346.41, 30.37 343.08 M29.45 350.23 C29.62 350.09, 29.75 349.92, 30.11 349.48 M29.45 350.23 C29.67 349.96, 29.9 349.71, 30.11 349.48" stroke="#fd7e14" stroke-width="0.5" fill="none"></path><path d="M0 0 C7.39 -0.26, 14.13 0.47, 30 0 M0 0 C6.54 0.19, 12.68 -0.09, 30 0 M30 0 C30.24 115.97, 30.34 232.37, 30 350 M30 0 C29.75 135.4, 29.77 271.21, 30 350 M30 350 C23.06 350.16, 16.43 350.37, 0 350 M30 350 C20.8 350.13, 11.14 349.95, 0 350 M0 350 C-0.01 244.61, -0.54 139.76, 0 0 M0 350 C-0.19 264.08, -0.35 178, 0 0" stroke="#000" stroke-width="1" fill="none"></path></g><g transform="translate(864.4544707788609 10) rotate(0 90.25 25)"><text x="90.25" y="0" font-family="Virgil, Segoe UI Emoji" font-size="20px" fill="#000" text-anchor="middle" style="white-space: pre;" direction="ltr" dominant-baseline="text-before-edge">Allow Proxy IP</text><text x="90.25" y="25" font-family="Virgil, Segoe UI Emoji" font-size="20px" fill="#000" text-anchor="middle" style="white-space: pre;" direction="ltr" dominant-baseline="text-before-edge">in Partner Firewall</text></g></svg>