<svg version="1.1" xmlns="http://www.w3.org/2000/svg" viewBox="0 0 858.2281329801822 525.2149711497646" width="858.2281329801822" height="525.2149711497646">
  <!-- svg-source:excalidraw -->
  
  <defs>
    <style>
      @font-face {
        font-family: "Virgil";
        src: url("https://excalidraw.com/Virgil.woff2");
      }
      @font-face {
        font-family: "Cascadia";
        src: url("https://excalidraw.com/Cascadia.woff2");
      }
    </style>
  </defs>
  <rect x="0" y="0" width="858.2281329801822" height="525.2149711497646" fill="#ffffff"></rect><g stroke-linecap="round" transform="translate(319.13387486469935 218.4818644574572) rotate(0 72 11.5)"><path d="M-0.67 1.65 C43.94 0.57, 89.06 -1.13, 143 0.78 M0.68 -0.59 C38.13 -0.59, 75.79 0.11, 144.53 -0.95 M145.92 -0.07 C145.48 8.9, 143.03 18.2, 144.57 24.55 M144.69 0.26 C144.56 7.42, 144.65 15.01, 143.56 22.41 M144.83 24.54 C98.12 24.05, 51.72 26, 0.34 22.49 M144.69 23.25 C98.25 23.66, 50.02 23.05, -0.15 22.02 M-1.47 21.99 C-1.29 13.97, 0.3 9.54, -0.56 -0.57 M-0.48 23.28 C0.32 15.98, 0.76 9.06, -0.6 0.15" stroke="#000000" stroke-width="1" fill="none"></path></g><g stroke-linecap="round" transform="translate(296.05695178777637 115.52032599591874) rotate(0 94 97)"><path d="M-1.39 -0.6 L188.09 -1.36 L188.72 193.22 L-0.2 194" stroke="none" stroke-width="0" fill="#ffffff"></path><path d="M1.99 -1.15 C48.71 1.23, 98.87 -1.39, 189.54 0.44 M-0.52 0.31 C58.5 -0.42, 115.83 -0.21, 187.46 0.34 M188.16 1.89 C185.49 56.78, 187.45 117.32, 186.9 195.04 M188.37 0.77 C189.85 43.16, 190.32 87.78, 187.99 194.41 M188.97 194.72 C146.07 192.49, 106.36 194.99, 1.3 193.79 M187.86 194.35 C137.11 193.14, 86.38 193.45, 0.46 194.62 M-1 192.28 C-0.06 134.57, -0.75 70.69, 1.65 -1.66 M-0.69 193.67 C-0.46 145.12, -0.46 97.6, 0.58 0.74" stroke="#000000" stroke-width="1" fill="none"></path></g><g stroke-linecap="round" transform="translate(320.05695178777637 261.0203259959187) rotate(0 71 12)"><path d="M0.63 -0.99 C51.75 -1.48, 101.57 0.65, 143.9 1.44 M-0.62 0.44 C38.62 0.84, 74.51 -0.65, 141.42 -0.94 M140.78 -0.82 C140.22 6.55, 143.01 11.98, 141.38 23.83 M141.59 0.08 C141.76 4.87, 141.44 12.21, 142.15 24.51 M140.93 24.08 C98.39 23.81, 56.56 25.12, -1.61 22.2 M142.91 23.67 C88.28 25.94, 34.88 24.2, -0.2 23.49 M-0.22 22.54 C-1.73 18.09, 0.96 9.63, -0.05 0.06 M-0.32 23.86 C0.37 16.2, 0.62 9.02, -1 -0.2" stroke="#000000" stroke-width="1" fill="none"></path></g><g transform="translate(356.68195178777637 258.0203259959187) rotate(0 46.5 12.5)"><text x="0" y="18" font-family="Virgil, Segoe UI Emoji" font-size="20px" fill="#000000" text-anchor="start" style="white-space: pre;" direction="ltr">Use Idem</text></g><g stroke-linecap="round" transform="translate(78.22522101854577 127.53474907284183) rotate(0 31.249999999999943 27.18749999999997)"><path d="M30.24 0.21 C36.4 -0.4, 44.27 2.56, 49.36 6.06 C54.45 9.57, 59.32 15.74, 60.78 21.22 C62.25 26.69, 61.09 33.76, 58.17 38.92 C55.25 44.07, 49.23 49.85, 43.25 52.14 C37.27 54.42, 28.56 54.2, 22.28 52.64 C16.01 51.07, 9.32 47.42, 5.61 42.75 C1.9 38.07, -0.71 30.61, 0.01 24.59 C0.73 18.56, 4.84 10.6, 9.94 6.62 C15.04 2.63, 27.07 1.67, 30.62 0.66 C34.17 -0.34, 31.06 0.13, 31.22 0.58 M30.95 0.05 C36.88 0.16, 45.43 3.69, 50.71 7.53 C56 11.36, 61.59 17.35, 62.67 23.04 C63.75 28.73, 60.88 36.56, 57.21 41.68 C53.54 46.8, 46.72 51.82, 40.64 53.77 C34.56 55.73, 26.74 55.8, 20.71 53.4 C14.69 51.01, 7.75 44.52, 4.47 39.42 C1.2 34.31, 0.02 28.62, 1.06 22.79 C2.1 16.96, 5.63 8.28, 10.73 4.43 C15.84 0.57, 28.12 0.4, 31.69 -0.37 C35.26 -1.14, 32.16 -0.57, 32.16 -0.21" stroke="#000000" stroke-width="1" fill="none"></path></g><g stroke-linecap="round"><g transform="translate(107.60022101854565 182.53474907284183) rotate(0 -1.1408288140921172 36.98321871350984)"><path d="M0.61 0.84 C0.2 13.18, -1.64 61.63, -2.35 73.73 M-0.53 0.24 C-1.05 12.25, -2.2 59.47, -2.89 71.92" stroke="#000000" stroke-width="1" fill="none"></path></g></g><g stroke-linecap="round"><g transform="translate(72.60022101854577 207.53474907284172) rotate(0 33.90041071828915 -0.6590401530265808)"><path d="M0.97 0.33 C12.25 -0.06, 56.48 -1.31, 67.78 -1.65 M0.02 -0.54 C11.11 -0.88, 55.26 -0.59, 66.65 -0.65" stroke="#000000" stroke-width="1" fill="none"></path></g></g><g stroke-linecap="round"><g transform="translate(103.85022101854565 256.9097490728417) rotate(0 12.527336002257641 20.656164979147718)"><path d="M1.17 0.48 C5.28 7.39, 20.76 35.12, 24.73 41.62 M0.32 -0.31 C4.3 6.27, 19.93 33.27, 23.97 40.02" stroke="#000000" stroke-width="1" fill="none"></path></g></g><g stroke-linecap="round"><g transform="translate(78.22522101854577 298.1597490728417) rotate(0 12.681001787567482 -20.62676097154616)"><path d="M-0.14 0.61 C4.12 -6.38, 20.44 -34.88, 24.77 -41.86 M-1.68 -0.12 C3.03 -6.9, 22.56 -33.12, 27.04 -40.32" stroke="#000000" stroke-width="1" fill="none"></path></g></g><g stroke-linecap="round"><g transform="translate(154.78772101854565 213.03955676514957) rotate(0 62.76590709845789 0.15770350560941893)"><path d="M0.29 -0.57 C21.19 -0.82, 105.51 -1.17, 126.55 -1.43 M-1.02 1.75 C19.73 1.7, 104.98 0.64, 126.22 0.16" stroke="#000000" stroke-width="1" fill="none"></path></g><g transform="translate(154.78772101854565 213.03955676514957) rotate(0 62.76590709845789 0.15770350560941893)"><path d="M97.25 12.84 C109.44 8.51, 119.38 2.57, 128.22 -1.01 M98.14 10.41 C106.52 7.66, 115.97 4.87, 125.94 -0.11" stroke="#000000" stroke-width="1" fill="none"></path></g><g transform="translate(154.78772101854565 213.03955676514957) rotate(0 62.76590709845789 0.15770350560941893)"><path d="M96.91 -7.68 C109.25 -3.9, 119.32 -1.74, 128.22 -1.01 M97.8 -10.11 C106.28 -6.5, 115.83 -2.94, 125.94 -0.11" stroke="#000000" stroke-width="1" fill="none"></path></g></g><g transform="translate(10 10) rotate(0 203 22.5)"><text x="0" y="32" font-family="Virgil, Segoe UI Emoji" font-size="36px" fill="#000000" text-anchor="start" style="white-space: pre;" direction="ltr">Sign up via notification</text></g><g stroke-linecap="round" transform="translate(317.7780791493268 219.20720583598714) rotate(0 72 11.5)"><path d="M-0.96 -0.85 C52.58 1.99, 107.06 0.52, 145.6 0.72 M0.36 0.33 C54.99 -0.64, 110.94 -0.91, 143.64 0.17 M142.12 0.28 C145.82 5.4, 144.81 11.54, 143.35 21.53 M144.42 0.5 C144.16 9.73, 142.93 18.72, 144.2 23.42 M144.04 24.13 C107.17 21.73, 72.55 22.45, -1.46 24.15 M144.03 22.78 C99.59 23.74, 55.71 24.01, -0.8 23.3 M1.97 22.45 C0.35 19.11, -1.41 10.54, -0.94 -1.33 M0.67 23.49 C-0.15 15.65, 0.24 8.3, -0.72 -0.56" stroke="#000000" stroke-width="1" fill="none"></path></g><g transform="translate(364.72628976063027 218.13399522468373) rotate(0 23.375 12.174479166666686)"><text x="23.375000000000018" y="17.348958333333346" font-family="Virgil, Segoe UI Emoji" font-size="19.47916666666667px" fill="#000000" text-anchor="middle" style="white-space: pre;" direction="ltr">email</text></g><g stroke-linecap="round"><g transform="translate(493.18413588125327 217.08865209367755) rotate(0 79.90765027049298 -0.24982852938191513)"><path d="M-0.65 -1.16 C25.94 -1.47, 133.69 -1.35, 160.46 -1.14 M1.21 0.85 C27.54 0.57, 132.49 -0.31, 159.37 -0.21" stroke="#000000" stroke-width="1" fill="none"></path></g><g transform="translate(493.18413588125327 217.08865209367755) rotate(0 79.90765027049298 -0.24982852938191513)"><path d="M129.29 9.69 C139.9 5.13, 152.66 0.5, 159.38 -1.12 M130.27 10.48 C138.82 6.23, 148.65 3.03, 158.7 -0.82" stroke="#000000" stroke-width="1" fill="none"></path></g><g transform="translate(493.18413588125327 217.08865209367755) rotate(0 79.90765027049298 -0.24982852938191513)"><path d="M129.22 -10.83 C139.99 -7.62, 152.77 -4.48, 159.38 -1.12 M130.2 -10.04 C138.96 -8.09, 148.8 -5.1, 158.7 -0.82" stroke="#000000" stroke-width="1" fill="none"></path></g></g><g stroke-linecap="round" transform="translate(171.04438238711202 354.5124147320746) rotate(0 45 73.07692307692304)"><path d="M-0.85 0.82 C27.24 0.36, 55.7 -0.01, 90.04 0.76 M-0.84 -0.23 C24.02 -0.71, 48.45 -0.96, 90.78 -0.38 M88.13 -0.33 C91.64 49.72, 92.19 101.67, 89.01 145.83 M90.4 1 C90.87 32.73, 90.05 65.33, 89.98 146.13 M91.53 145.49 C65.1 146.91, 43.04 145.29, -1.08 147.82 M89.32 146.51 C65.28 146.47, 42.39 145.69, 0.13 146.71 M1.03 145.82 C-2.31 87.41, -0.42 30.84, 1.79 1.23 M-0.27 145.18 C1.55 106.69, 1.07 66, -0.6 -0.33" stroke="#000000" stroke-width="1" fill="none"></path></g><g stroke-linecap="round" transform="translate(209.5059208486506 477.98333405665244) rotate(0 9.230769230769226 7.879924953095667)"><path d="M8.49 0.05 C10.37 -0.29, 13.16 0.1, 14.91 1.08 C16.67 2.07, 18.69 4.32, 18.99 5.97 C19.3 7.62, 17.71 9.58, 16.75 10.99 C15.8 12.4, 14.8 13.81, 13.26 14.42 C11.72 15.02, 9.31 15.04, 7.51 14.64 C5.71 14.23, 3.6 13.12, 2.44 12.01 C1.29 10.9, 0.67 9.75, 0.57 7.98 C0.47 6.2, 0.32 2.66, 1.84 1.37 C3.35 0.08, 8.27 0.34, 9.66 0.26 C11.06 0.17, 10.32 0.84, 10.2 0.85 M7.16 0.63 C9.46 0.21, 14.2 0.65, 16.06 1.3 C17.92 1.95, 18.04 2.85, 18.31 4.51 C18.58 6.16, 18.57 9.54, 17.69 11.22 C16.81 12.91, 15.05 14.03, 13.04 14.62 C11.04 15.21, 7.37 15.21, 5.66 14.75 C3.95 14.29, 3.77 12.98, 2.78 11.87 C1.79 10.75, -0.52 9.69, -0.28 8.04 C-0.04 6.39, 2.9 3.08, 4.23 1.95 C5.56 0.82, 7.04 1.46, 7.67 1.27 C8.3 1.08, 7.73 1.05, 8.02 0.81" stroke="#000000" stroke-width="1" fill="none"></path></g><g stroke-linecap="round" transform="translate(177.96745931018893 362.2047224243822) rotate(0 37.69230769230768 53.84615384615381)"><path d="M-0.34 0.48 C24.14 -0.2, 47.28 0.45, 74.69 1.69 M0.14 -0.61 C24.18 -0.68, 47.79 -0.21, 75.92 0.79 M75.86 -1.94 C75.41 21.25, 73.39 45.48, 73.85 109.02 M75.28 0.1 C74.9 22.89, 75.8 45.6, 75.1 106.94 M74.96 108.88 C58.43 107.01, 36.43 109.1, -0.64 108.52 M74.8 107.51 C49.3 107.01, 22.03 108.51, 0.97 107.96 M-1.92 106.96 C-0.59 82.32, 1.23 56.77, -0.54 -1.72 M0.29 108.13 C0.11 76.63, -0.31 45.92, -0.77 -0.12" stroke="#000000" stroke-width="1" fill="none"></path></g><g transform="translate(184.12130546403534 321.66626088592136) rotate(0 29 12.5)"><text x="0" y="18" font-family="Virgil, Segoe UI Emoji" font-size="20px" fill="#000000" text-anchor="start" style="white-space: pre;" direction="ltr">Mobile</text></g><g transform="translate(185.08972768027172 400.39346806181686) rotate(0 28 12.5)"><text x="28" y="18" font-family="Virgil, Segoe UI Emoji" font-size="20px" fill="#000000" text-anchor="middle" style="white-space: pre;" direction="ltr">Alert!</text></g><g transform="translate(336.52668124855063 374.4062226565959) rotate(0 150.5 12.5)"><text x="150.5" y="18" font-family="Virgil, Segoe UI Emoji" font-size="20px" fill="#000000" text-anchor="middle" style="white-space: pre;" direction="ltr">Request claims via notifcation</text></g><g transform="translate(54.54029635128154 310.57196497386917) rotate(0 51 12.5)"><text x="51" y="18" font-family="Virgil, Segoe UI Emoji" font-size="20px" fill="#000000" text-anchor="middle" style="white-space: pre;" direction="ltr">Idem User</text></g><g transform="translate(322.45994103206294 127.97430409113284) rotate(0 68.5 12.5)"><text x="68.5" y="18" font-family="Virgil, Segoe UI Emoji" font-size="20px" fill="#000000" text-anchor="middle" style="white-space: pre;" direction="ltr">Cool exchange</text></g><g stroke-linecap="round" transform="translate(657.9483698596609 152.3124481382512) rotate(0 95.13988156026062 62.51940778074649)"><path d="M-1.23 -1.27 C53.66 -0.1, 108.73 0.58, 192.1 1.07 M-0.71 0.4 C48.34 -0.31, 94.33 0.62, 189.85 0.19 M192.23 -1.07 C191.18 32.62, 189.66 66.45, 190.61 124.23 M190.46 0.31 C189.55 49.68, 190.06 98.27, 190.64 124.63 M190.76 125.01 C123.32 122.01, 54.48 124.86, 0.37 125.72 M190.99 125.21 C130.37 126.32, 68.37 124.65, -0.6 124.25 M0.62 124.59 C0.86 74.62, 1.93 27.42, 0.89 1.57 M-0.66 125.84 C-0.28 94.48, -1.15 61.63, -0.7 0.23" stroke="#000000" stroke-width="1" fill="none"></path></g><g transform="translate(669.4105043416776 200.91381310591552) rotate(0 82.5 12.5)"><text x="82.5" y="18" font-family="Virgil, Segoe UI Emoji" font-size="20px" fill="#000000" text-anchor="middle" style="white-space: pre;" direction="ltr">proxy.idem.com.au</text></g><g transform="translate(627.9717184294573 490.21497114976455) rotate(0 81.5 12.5)"><text x="81.5" y="18" font-family="Virgil, Segoe UI Emoji" font-size="20px" fill="#000000" text-anchor="middle" style="white-space: pre;" direction="ltr">Send WC3 claims</text></g><g transform="translate(499.9222487799459 174.85935922731923) rotate(0 66 12.5)"><text x="66" y="18" font-family="Virgil, Segoe UI Emoji" font-size="20px" fill="#000000" text-anchor="middle" style="white-space: pre;" direction="ltr">POST /notify</text></g><g stroke-linecap="round"><g transform="translate(748.378634708444 284.8303689159055) rotate(0 -228.248102169424 68.22431250167824)"><path d="M-0.37 -0.47 C-2.63 20.67, 67.66 104.58, -12.69 126.78 C-93.03 148.98, -403.96 131.84, -482.44 132.73 M1.64 -1.76 C-0.8 19.06, 67.38 102.57, -13.32 125.19 C-94.03 147.81, -404.27 132.7, -482.6 133.99" stroke="#000000" stroke-width="1" fill="none"></path></g><g transform="translate(748.378634708444 284.8303689159055) rotate(0 -228.248102169424 68.22431250167824)"><path d="M-455.04 125.14 C-463.08 129.63, -475.47 131.4, -483.77 135.4 M-454.73 124.45 C-462.11 125.93, -468.73 130.06, -483.58 133.52" stroke="#000000" stroke-width="1" fill="none"></path></g><g transform="translate(748.378634708444 284.8303689159055) rotate(0 -228.248102169424 68.22431250167824)"><path d="M-455.35 145.66 C-463.27 142.55, -475.55 136.71, -483.77 135.4 M-455.04 144.97 C-462.16 141.42, -468.71 140.52, -483.58 133.52" stroke="#000000" stroke-width="1" fill="none"></path></g></g><g stroke-linecap="round"><g transform="translate(264.78064093679404 448.6868320070323) rotate(0 279.70855009964964 -76.61884529180404)"><path d="M-0.01 -0.74 C85.28 -0.33, 421.77 29.37, 511.9 1.45 C602.03 -26.47, 536.04 -139.86, 540.76 -168.28 M-1.47 1.49 C84.17 2.15, 423.92 30.89, 514.13 2.82 C604.34 -25.26, 535.48 -138.43, 539.78 -166.95" stroke="#000000" stroke-width="1" fill="none"></path></g><g transform="translate(264.78064093679404 448.6868320070323) rotate(0 279.70855009964964 -76.61884529180404)"><path d="M554.6 -143.15 C550.45 -150.25, 545.96 -159.16, 538.55 -165.35 M555.6 -141.61 C551.58 -147.28, 548.47 -153.76, 539.52 -167.11" stroke="#000000" stroke-width="1" fill="none"></path></g><g transform="translate(264.78064093679404 448.6868320070323) rotate(0 279.70855009964964 -76.61884529180404)"><path d="M534.55 -138.76 C536.74 -147.24, 538.54 -157.53, 538.55 -165.35 M535.55 -137.22 C536.46 -143.81, 538.28 -151.36, 539.52 -167.11" stroke="#000000" stroke-width="1" fill="none"></path></g></g><g stroke-linecap="round"><g transform="translate(749.2643453197472 152.85948783170065) rotate(0 -163.53560999161812 -39.89970312438075)"><path d="M0.31 -0.65 C0.53 -13, 51.27 -62.36, 1.68 -74.33 C-47.91 -86.3, -238.6 -78.25, -297.22 -72.47 C-355.84 -66.69, -341.62 -44.88, -350.05 -39.63 M-0.98 1.63 C-0.89 -11.03, 50.62 -63.84, 1.15 -75.96 C-48.32 -88.07, -239.2 -77.32, -297.78 -71.07 C-356.37 -64.81, -341.89 -43.39, -350.37 -38.41" stroke="#000000" stroke-width="1" fill="none"></path></g><g transform="translate(749.2643453197472 152.85948783170065) rotate(0 -163.53560999161812 -39.89970312438075)"><path d="M-348.04 -66.89 C-346.56 -57.62, -349.02 -50.1, -349.99 -36.45 M-346.62 -67.44 C-348.72 -62.21, -348.64 -55.63, -350.22 -38.2" stroke="#000000" stroke-width="1" fill="none"></path></g><g transform="translate(749.2643453197472 152.85948783170065) rotate(0 -163.53560999161812 -39.89970312438075)"><path d="M-329.68 -57.73 C-334.32 -51.47, -342.91 -47.01, -349.99 -36.45 M-328.25 -58.28 C-334.06 -55.08, -337.77 -50.38, -350.22 -38.2" stroke="#000000" stroke-width="1" fill="none"></path></g></g><g transform="translate(580.150441744195 29.602818973563643) rotate(0 77 12.5)"><text x="77" y="18" font-family="Virgil, Segoe UI Emoji" font-size="20px" fill="#000000" text-anchor="middle" style="white-space: pre;" direction="ltr">/POST callback</text></g></svg>